{
    "asset" : {
        "generator" : "Khronos glTF Blender I/O v0.9.2",
        "version" : "2.0"
    },
    "scene" : 0,
    "scenes" : [
        {
            "extras" : {
                "vs" : {
                    "export_list" : [
                        {
                            "name" : "cell.smd",
                            "ob_type" : "OBJECT",
                            "icon" : "OUTLINER_OB_MESH",
                            "item_name" : "cell"
                        },
                        {
                            "name" : "Sphere.smd",
                            "ob_type" : "OBJECT",
                            "icon" : "OUTLINER_OB_MESH",
                            "item_name" : "Sphere"
                        }
                    ],
                    "export_path" : "C:\\Users\\hugol\\Desktop\\spike\\",
                    "export_format" : 0
                }
            },
            "name" : "Scene",
            "nodes" : [
                0,
                1,
                2
            ]
        }
    ],
    "nodes" : [
        {
            "extras" : {},
            "mesh" : 0,
            "name" : "Sphere"
        },
        {
            "extras" : {},
            "mesh" : 1,
            "name" : "cell"
        },
        {
            "name" : "Sun",
            "translation" : [
                -2.218524932861328,
                6.827847957611084,
                -0.5956506729125977
            ]
        }
    ],
    "materials" : [
        {
            "name" : "ribo",
            "pbrMetallicRoughness" : {}
        },
        {
            "name" : "capsule",
            "pbrMetallicRoughness" : {
                "baseColorTexture" : {
                    "index" : 0,
                    "texCoord" : 0
                },
                "metallicFactor" : 0,
                "roughnessFactor" : 0
            }
        },
        {
            "name" : "wall",
            "pbrMetallicRoughness" : {}
        },
        {
            "name" : "membrane",
            "pbrMetallicRoughness" : {}
        }
    ],
    "meshes" : [
        {
            "name" : "Sphere.001",
            "primitives" : [
                {
                    "attributes" : {
                        "POSITION" : 0,
                        "NORMAL" : 1
                    },
                    "indices" : 2,
                    "material" : 0
                }
            ]
        },
        {
            "name" : "Sphere",
            "primitives" : [
                {
                    "attributes" : {
                        "POSITION" : 3,
                        "NORMAL" : 4,
                        "JOINTS_0" : 5,
                        "WEIGHTS_0" : 6
                    },
                    "indices" : 7,
                    "material" : 1
                },
                {
                    "attributes" : {
                        "POSITION" : 8,
                        "NORMAL" : 9,
                        "JOINTS_0" : 10,
                        "WEIGHTS_0" : 11
                    },
                    "indices" : 12,
                    "material" : 2
                },
                {
                    "attributes" : {
                        "POSITION" : 13,
                        "NORMAL" : 14,
                        "JOINTS_0" : 15,
                        "WEIGHTS_0" : 16
                    },
                    "indices" : 17,
                    "material" : 3
                }
            ]
        }
    ],
    "textures" : [
        {
            "source" : 0
        }
    ],
    "images" : [
        {
            "mimeType" : "image/png",
            "name" : "Untitled.002",
            "uri" : "Untitled_002.png"
        }
    ],
    "accessors" : [
        {
            "bufferView" : 0,
            "componentType" : 5126,
            "count" : 416,
            "max" : [
                1.3655915260314941,
                -0.1735544502735138,
                1.0748729705810547
            ],
            "min" : [
                -3.486102342605591,
                -0.73073810338974,
                -1.1312336921691895
            ],
            "type" : "VEC3"
        },
        {
            "bufferView" : 1,
            "componentType" : 5126,
            "count" : 416,
            "type" : "VEC3"
        },
        {
            "bufferView" : 2,
            "componentType" : 5123,
            "count" : 2340,
            "type" : "SCALAR"
        },
        {
            "bufferView" : 3,
            "componentType" : 5126,
            "count" : 1073,
            "max" : [
                4.6867828369140625,
                1.9478029012680054,
                2.0710649490356445
            ],
            "min" : [
                -4.582201957702637,
                -1.9940499067306519,
                -2.080277919769287
            ],
            "type" : "VEC3"
        },
        {
            "bufferView" : 4,
            "componentType" : 5126,
            "count" : 1073,
            "type" : "VEC3"
        },
        {
            "bufferView" : 5,
            "componentType" : 5123,
            "count" : 1073,
            "type" : "VEC4"
        },
        {
            "bufferView" : 6,
            "componentType" : 5126,
            "count" : 1073,
            "type" : "VEC4"
        },
        {
            "bufferView" : 7,
            "componentType" : 5123,
            "count" : 6426,
            "type" : "SCALAR"
        },
        {
            "bufferView" : 8,
            "componentType" : 5126,
            "count" : 160,
            "max" : [
                1.1100664138793945,
                1.5695310831069946,
                1.6108373403549194
            ],
            "min" : [
                -4.217780113220215,
                0.027192428708076477,
                -1.6451607942581177
            ],
            "type" : "VEC3"
        },
        {
            "bufferView" : 9,
            "componentType" : 5126,
            "count" : 160,
            "type" : "VEC3"
        },
        {
            "bufferView" : 10,
            "componentType" : 5123,
            "count" : 160,
            "type" : "VEC4"
        },
        {
            "bufferView" : 11,
            "componentType" : 5126,
            "count" : 160,
            "type" : "VEC4"
        },
        {
            "bufferView" : 12,
            "componentType" : 5123,
            "count" : 768,
            "type" : "SCALAR"
        },
        {
            "bufferView" : 13,
            "componentType" : 5126,
            "count" : 129,
            "max" : [
                1.1100664138793945,
                0.9882878065109253,
                1.4047682285308838
            ],
            "min" : [
                -4.013867378234863,
                -0.45751163363456726,
                -1.4075160026550293
            ],
            "type" : "VEC3"
        },
        {
            "bufferView" : 14,
            "componentType" : 5126,
            "count" : 129,
            "type" : "VEC3"
        },
        {
            "bufferView" : 15,
            "componentType" : 5123,
            "count" : 129,
            "type" : "VEC4"
        },
        {
            "bufferView" : 16,
            "componentType" : 5126,
            "count" : 129,
            "type" : "VEC4"
        },
        {
            "bufferView" : 17,
            "componentType" : 5123,
            "count" : 672,
            "type" : "SCALAR"
        }
    ],
    "bufferViews" : [
        {
            "buffer" : 0,
            "byteLength" : 4992,
            "byteOffset" : 0
        },
        {
            "buffer" : 0,
            "byteLength" : 4992,
            "byteOffset" : 4992
        },
        {
            "buffer" : 0,
            "byteLength" : 4680,
            "byteOffset" : 9984
        },
        {
            "buffer" : 0,
            "byteLength" : 12876,
            "byteOffset" : 14664
        },
        {
            "buffer" : 0,
            "byteLength" : 12876,
            "byteOffset" : 27540
        },
        {
            "buffer" : 0,
            "byteLength" : 8584,
            "byteOffset" : 40416
        },
        {
            "buffer" : 0,
            "byteLength" : 17168,
            "byteOffset" : 49000
        },
        {
            "buffer" : 0,
            "byteLength" : 12852,
            "byteOffset" : 66168
        },
        {
            "buffer" : 0,
            "byteLength" : 1920,
            "byteOffset" : 79020
        },
        {
            "buffer" : 0,
            "byteLength" : 1920,
            "byteOffset" : 80940
        },
        {
            "buffer" : 0,
            "byteLength" : 1280,
            "byteOffset" : 82860
        },
        {
            "buffer" : 0,
            "byteLength" : 2560,
            "byteOffset" : 84140
        },
        {
            "buffer" : 0,
            "byteLength" : 1536,
            "byteOffset" : 86700
        },
        {
            "buffer" : 0,
            "byteLength" : 1548,
            "byteOffset" : 88236
        },
        {
            "buffer" : 0,
            "byteLength" : 1548,
            "byteOffset" : 89784
        },
        {
            "buffer" : 0,
            "byteLength" : 1032,
            "byteOffset" : 91332
        },
        {
            "buffer" : 0,
            "byteLength" : 2064,
            "byteOffset" : 92364
        },
        {
            "buffer" : 0,
            "byteLength" : 1344,
            "byteOffset" : 94428
        }
    ],
    "buffers" : [
        {
            "byteLength" : 95772,
            "uri" : "scene.glb.bin"
        }
    ]
}
